<svg width="35" height="35" viewBox="0 0 35 35" fill="none" xmlns="http://www.w3.org/2000/svg">
<mask id="mask0_1511_1015" style="mask-type:alpha" maskUnits="userSpaceOnUse" x="0" y="0" width="35" height="35">
<rect width="35" height="34.507" fill="#D9D9D9"/>
</mask>
<g mask="url(#mask0_1511_1015)">
<path d="M14.582 10.3524C14.7367 10.3524 14.8851 10.413 14.9945 10.5208C15.1039 10.6287 15.1654 10.775 15.1654 10.9275H16.332C16.332 10.4699 16.1477 10.0311 15.8195 9.70749C15.4913 9.38393 15.0462 9.20215 14.582 9.20215C14.1179 9.20215 13.6728 9.38393 13.3446 9.70749C13.0164 10.0311 12.832 10.4699 12.832 10.9275H13.9987C13.9987 10.775 14.0602 10.6287 14.1696 10.5208C14.2789 10.413 14.4273 10.3524 14.582 10.3524ZM20.4154 10.3524C20.5701 10.3524 20.7184 10.413 20.8278 10.5208C20.9372 10.6287 20.9987 10.775 20.9987 10.9275H22.1654C22.1654 10.4699 21.981 10.0311 21.6528 9.70749C21.3246 9.38393 20.8795 9.20215 20.4154 9.20215C19.9512 9.20215 19.5061 9.38393 19.1779 9.70749C18.8497 10.0311 18.6654 10.4699 18.6654 10.9275H19.832C19.832 10.775 19.8935 10.6287 20.0029 10.5208C20.1123 10.413 20.2607 10.3524 20.4154 10.3524ZM15.7487 12.6529H14.582C14.582 13.4155 14.8893 14.1469 15.4363 14.6862C15.9833 15.2255 16.7252 15.5284 17.4987 15.5284C18.2722 15.5284 19.0141 15.2255 19.5611 14.6862C20.1081 14.1469 20.4154 13.4155 20.4154 12.6529H19.2487C19.2487 13.1104 19.0643 13.5493 18.7361 13.8729C18.4079 14.1964 17.9628 14.3782 17.4987 14.3782C17.0346 14.3782 16.5894 14.1964 16.2613 13.8729C15.9331 13.5493 15.7487 13.1104 15.7487 12.6529Z" fill="#63AB45"/>
<path d="M26.832 10.3521H25.6368C25.6555 10.2714 25.6651 10.1888 25.6654 10.106V9.03797C25.6648 8.83696 25.6105 8.63964 25.5081 8.46582C25.4058 8.29199 25.2588 8.14777 25.082 8.04762V7.47653C25.082 5.49363 24.2831 3.59194 22.8609 2.18982C21.4388 0.787703 19.5099 0 17.4987 0C15.4875 0 13.5586 0.787703 12.1365 2.18982C10.7143 3.59194 9.91537 5.49363 9.91537 7.47653V8.04762C9.73859 8.14777 9.59164 8.29199 9.48925 8.46582C9.38687 8.63964 9.33265 8.83696 9.33203 9.03797V10.106C9.33231 10.1888 9.3419 10.2714 9.36061 10.3521H8.16536C7.08278 10.3533 6.04488 10.7779 5.27938 11.5326C4.51387 12.2873 4.08327 13.3106 4.08203 14.3779V28.1807C4.08203 28.3333 4.14349 28.4796 4.25289 28.5874C4.36228 28.6953 4.51065 28.7559 4.66536 28.7559H6.41536V33.9319C6.41536 34.0845 6.47682 34.2307 6.58622 34.3386C6.69562 34.4464 6.84399 34.507 6.9987 34.507H27.9987C28.1534 34.507 28.3018 34.4464 28.4112 34.3386C28.5206 34.2307 28.582 34.0845 28.582 33.9319V28.7559H30.332C30.4867 28.7559 30.6351 28.6953 30.7445 28.5874C30.8539 28.4796 30.9154 28.3333 30.9154 28.1807V14.3779C30.9141 13.3106 30.4835 12.2873 29.718 11.5326C28.9525 10.7779 27.9146 10.3533 26.832 10.3521ZM26.2487 11.5023V16.1372C26.0551 16.1152 25.8603 16.1038 25.6654 16.1033H23.0625C23.5086 15.7449 23.8688 15.2937 24.1171 14.7819C24.3654 14.2701 24.4957 13.7105 24.4987 13.1432V11.5023H26.2487ZM23.9154 20.7042V19.554H25.082V20.7042H23.9154ZM25.082 21.8545V24.1549H23.9154V21.8545H25.082ZM23.9154 18.4038V17.2535H25.082V18.4038H23.9154ZM17.4987 1.15023C18.3417 1.14902 19.1766 1.31183 19.9557 1.62933C20.7348 1.94682 21.4426 2.41277 22.0387 3.00046C22.6348 3.58815 23.1074 4.28604 23.4294 5.05413C23.7515 5.82221 23.9166 6.6454 23.9154 7.47653V7.66344L19.6535 3.61174C19.5886 3.549 19.5094 3.5024 19.4226 3.4758C19.3358 3.4492 19.2438 3.44335 19.1542 3.45876C19.0646 3.47321 18.9797 3.50808 18.9061 3.5606C18.8326 3.61312 18.7725 3.68183 18.7307 3.76127L18.0978 4.96499C17.989 5.16977 17.8394 5.3508 17.658 5.49726C17.4766 5.64371 17.267 5.75256 17.0419 5.81731C16.8058 5.88889 16.5574 5.91285 16.3117 5.88775C16.066 5.86265 15.8279 5.78902 15.6116 5.67123C14.9649 5.3218 14.2106 5.21854 13.4918 5.38105C12.773 5.54357 12.1397 5.96055 11.712 6.55289L11.082 7.44949C11.0911 5.77691 11.7709 4.17578 12.9731 2.9956C14.1753 1.81542 15.8022 1.15203 17.4987 1.15023ZM10.4987 9.03797H11.082C11.1765 9.03797 11.2695 9.01536 11.3531 8.97208C11.4368 8.9288 11.5085 8.86615 11.5621 8.78952L12.6704 7.20622C12.9324 6.84677 13.3191 6.59455 13.7571 6.49735C14.1951 6.40015 14.654 6.46472 15.0469 6.67884C15.4003 6.86945 15.7886 6.98878 16.1892 7.02985C16.5898 7.07093 16.9947 7.03294 17.3803 6.91809C17.7541 6.80885 18.1017 6.62645 18.4024 6.38178C18.703 6.13712 18.9506 5.83521 19.1303 5.4941L19.4033 4.97649L23.507 8.87866C23.6158 8.98197 23.7609 9.0397 23.9119 9.03969H24.4952V10.1077H23.9154C23.7607 10.1077 23.6123 10.1683 23.5029 10.2761C23.3935 10.384 23.332 10.5303 23.332 10.6828V13.1449C23.3276 13.6448 23.1843 14.1339 22.9177 14.5591C22.6512 14.9843 22.2715 15.3294 21.82 15.5569L19.4622 16.7796C18.8566 17.0933 18.1828 17.2571 17.4987 17.2571C16.8146 17.2571 16.1408 17.0933 15.5352 16.7796L13.1774 15.5569C12.7256 15.3293 12.3458 14.9839 12.0792 14.5584C11.8127 14.1328 11.6695 13.6433 11.6654 13.1432V10.6811C11.6654 10.5285 11.6039 10.3823 11.4945 10.2744C11.3851 10.1666 11.2367 10.106 11.082 10.106H10.4987V9.03797ZM21.9064 27.6056H13.091C13.2479 27.3465 13.3506 27.059 13.3932 26.7601C13.4357 26.4612 13.4172 26.157 13.3387 25.8653C13.2602 25.5735 13.1233 25.3002 12.9361 25.0614C12.749 24.8226 12.5152 24.6231 12.2487 24.4747V17.2535H12.9849C13.2425 18.2408 13.8258 19.1155 14.6429 19.7402C15.4601 20.3648 16.4647 20.7037 17.4987 20.7037C18.5327 20.7037 19.5373 20.3648 20.3545 19.7402C21.1716 19.1155 21.7549 18.2408 22.0125 17.2535H22.7487V24.4747C22.4822 24.6231 22.2484 24.8226 22.0613 25.0614C21.8741 25.3002 21.7372 25.5735 21.6587 25.8653C21.5802 26.157 21.5617 26.4612 21.6042 26.7601C21.6468 27.059 21.7495 27.3465 21.9064 27.6056ZM14.2904 17.4295L14.9956 17.7953C15.7683 18.1964 16.6284 18.4061 17.5016 18.4061C18.3749 18.4061 19.235 18.1964 20.0076 17.7953L20.7129 17.4295C20.4518 18.0578 20.0071 18.5953 19.4352 18.9736C18.8634 19.3519 18.1903 19.5539 17.5016 19.5539C16.813 19.5539 16.1399 19.3519 15.568 18.9736C14.9962 18.5953 14.5514 18.0578 14.2904 17.4295ZM8.7487 11.5023H10.4987V13.1432C10.5017 13.7105 10.632 14.2701 10.8803 14.7819C11.1286 15.2937 11.4888 15.7449 11.9349 16.1033H9.33203C9.1371 16.1038 8.94235 16.1152 8.7487 16.1372V11.5023ZM9.91537 20.7042V19.554H11.082V20.7042H9.91537ZM11.082 21.8545V24.1549H9.91537V21.8545H11.082ZM9.91537 18.4038V17.2535H11.082V18.4038H9.91537ZM5.2487 14.3779C5.24955 13.7153 5.48208 13.0732 5.90712 12.5598C6.33215 12.0465 6.92369 11.6933 7.58203 11.5599V16.4046C6.66674 16.7246 5.85915 17.2882 5.2487 18.0328V14.3779ZM5.2487 22.4296V21.2793C5.24985 20.3121 5.60419 19.3776 6.24689 18.6468C6.88959 17.9159 7.77768 17.4377 8.7487 17.2995V24.1549H5.2487V22.4296ZM5.2487 27.6056V25.3052H11.082C11.3915 25.3052 11.6882 25.4263 11.907 25.6421C12.1258 25.8578 12.2487 26.1503 12.2487 26.4554C12.2487 26.7605 12.1258 27.053 11.907 27.2687C11.6882 27.4844 11.3915 27.6056 11.082 27.6056H5.2487ZM27.4154 33.3568H7.58203V28.7559H27.4154V33.3568ZM29.7487 27.6056H23.9154C23.6059 27.6056 23.3092 27.4844 23.0904 27.2687C22.8716 27.053 22.7487 26.7605 22.7487 26.4554C22.7487 26.1503 22.8716 25.8578 23.0904 25.6421C23.3092 25.4263 23.6059 25.3052 23.9154 25.3052H29.7487V27.6056ZM29.7487 22.4296V24.1549H26.2487V17.2995C27.2197 17.4377 28.1078 17.9159 28.7505 18.6468C29.3932 19.3776 29.7475 20.3121 29.7487 21.2793V22.4296ZM29.7487 18.0334C29.1382 17.2887 28.3307 16.7252 27.4154 16.4052V11.5599C28.0737 11.6933 28.6652 12.0465 29.0903 12.5598C29.5153 13.0732 29.7479 13.7153 29.7487 14.3779V18.0334Z" fill="#63AB45"/>
</g>
</svg>
