<svg width="35" height="35" viewBox="0 0 35 35" fill="none" xmlns="http://www.w3.org/2000/svg">
<mask id="mask0_1511_1025" style="mask-type:alpha" maskUnits="userSpaceOnUse" x="0" y="0" width="35" height="35">
<rect width="35" height="34.507" fill="#D9D9D9"/>
</mask>
<g mask="url(#mask0_1511_1025)">
<mask id="mask1_1511_1025" style="mask-type:alpha" maskUnits="userSpaceOnUse" x="0" y="0" width="35" height="35">
<rect width="35" height="35" fill="#D9D9D9"/>
</mask>
<g mask="url(#mask1_1511_1025)">
<path d="M22.8537 10.3898C23.1461 10.1048 23.2493 9.68656 23.1232 9.29821C22.997 8.90993 22.6676 8.63219 22.2636 8.57353L19.3298 8.14718C19.3231 8.1462 19.3167 8.14361 19.3112 8.13962C19.3057 8.13563 19.3013 8.13036 19.2983 8.12428L17.9863 5.46592C17.8055 5.09978 17.4397 4.87235 17.0314 4.87235C16.623 4.87235 16.2571 5.09978 16.0764 5.46592L14.7644 8.12428C14.7614 8.13038 14.757 8.13566 14.7515 8.13965C14.746 8.14364 14.7396 8.14622 14.7328 8.14718L11.7991 8.57353C11.3951 8.63219 11.0658 8.90986 10.9395 9.29821C10.8133 9.68649 10.9165 10.1049 11.209 10.3898L13.3319 12.4592C13.3367 12.4639 13.3404 12.4698 13.3425 12.4762C13.3446 12.4827 13.3451 12.4896 13.3439 12.4963L12.8428 15.4182C12.7738 15.8206 12.9362 16.2196 13.2664 16.4597C13.5967 16.6998 14.0263 16.7308 14.3879 16.5408L17.0119 15.1612C17.018 15.158 17.0247 15.1564 17.0315 15.1564C17.0383 15.1564 17.045 15.158 17.051 15.1612L19.675 16.5408C19.8281 16.6215 19.9985 16.6639 20.1716 16.6641C20.3914 16.6641 20.6099 16.5952 20.7965 16.4596C21.1268 16.2196 21.2891 15.8205 21.2201 15.4181L21.147 14.9921C21.0993 14.7136 20.8347 14.5265 20.5564 14.5745C20.4228 14.5974 20.3037 14.6725 20.2253 14.7833C20.147 14.894 20.1159 15.0313 20.1388 15.165L20.2119 15.591C20.2137 15.6013 20.2163 15.6167 20.1952 15.6321C20.1742 15.6474 20.1603 15.6402 20.1511 15.6353L17.5271 14.2557C17.3743 14.1754 17.2042 14.1334 17.0316 14.1334C16.859 14.1334 16.6889 14.1754 16.5361 14.2557L13.9121 15.6353C13.9029 15.6401 13.889 15.6474 13.868 15.6321C13.847 15.6168 13.8496 15.6013 13.8514 15.591L14.3526 12.6692C14.3818 12.499 14.3692 12.3243 14.3158 12.1601C14.2625 11.9959 14.17 11.8471 14.0463 11.7266L11.9234 9.6573C11.916 9.65006 11.9047 9.63912 11.9127 9.61431C11.9208 9.58956 11.9363 9.5873 11.9466 9.5858L14.8802 9.15951C15.0511 9.1347 15.2134 9.0687 15.3531 8.96721C15.4928 8.86573 15.6057 8.73179 15.6821 8.57695L16.9941 5.91859C16.9987 5.90923 17.0057 5.89521 17.0317 5.89521C17.0577 5.89521 17.0646 5.9093 17.0693 5.91859L18.3813 8.57688C18.4576 8.73173 18.5705 8.86567 18.7102 8.96717C18.8499 9.06867 19.0122 9.13468 19.183 9.15951L22.1168 9.58587C22.1271 9.58731 22.1426 9.58963 22.1507 9.61437C22.1587 9.63912 22.1474 9.65013 22.1401 9.65737L20.0171 11.7267C19.8935 11.8472 19.801 11.996 19.7477 12.1602C19.6943 12.3244 19.6817 12.4991 19.7109 12.6692L19.7922 13.1432C19.8035 13.2094 19.8278 13.2727 19.8636 13.3296C19.8994 13.3864 19.9461 13.4356 20.0009 13.4744C20.0558 13.5132 20.1177 13.5408 20.1832 13.5556C20.2488 13.5704 20.3165 13.5722 20.3827 13.5608C20.4489 13.5495 20.5123 13.5252 20.5691 13.4894C20.6259 13.4536 20.6751 13.4069 20.7139 13.3521C20.7527 13.2972 20.7803 13.2353 20.7951 13.1698C20.8099 13.1043 20.8117 13.0365 20.8004 12.9703L20.7191 12.4963C20.7179 12.4896 20.7184 12.4827 20.7205 12.4763C20.7226 12.4698 20.7262 12.4639 20.7311 12.4592L22.8537 10.3898ZM10.2857 3.48213C10.1754 3.14272 9.88753 2.89998 9.53432 2.84871L7.35946 2.53269L6.38692 0.561816C6.229 0.241758 5.90915 0.0429688 5.55225 0.0429688C5.19534 0.0429688 4.87556 0.241758 4.71758 0.561816L3.74503 2.53262L1.57018 2.84864C1.21696 2.89998 0.929102 3.14272 0.818839 3.48206C0.708575 3.82147 0.79881 4.18705 1.05441 4.43622L2.62811 5.97027L2.25657 8.13638C2.22652 8.30758 2.24531 8.48379 2.31081 8.6448C2.3763 8.80581 2.48585 8.94511 2.62688 9.04672C2.78539 9.16264 2.97662 9.22523 3.173 9.22548C3.32429 9.22527 3.47325 9.18822 3.60701 9.11754L5.55225 8.09488L7.49748 9.11754C7.81337 9.28365 8.18894 9.25651 8.47769 9.04672C8.76644 8.83692 8.90835 8.48815 8.84799 8.13638L8.47646 5.97034L10.0502 4.43636C10.1751 4.31547 10.2635 4.16185 10.3051 3.99308C10.3467 3.82432 10.34 3.64724 10.2857 3.48213ZM7.72765 5.27164C7.6196 5.37697 7.53878 5.507 7.49216 5.65051C7.44554 5.79402 7.43451 5.94672 7.46002 6.09544L7.80817 8.1251L5.9853 7.16677C5.85173 7.09657 5.7031 7.0599 5.55221 7.0599C5.40132 7.0599 5.25269 7.09657 5.11912 7.16677L3.29632 8.12503L3.64447 6.09523C3.66999 5.94652 3.65896 5.79382 3.61232 5.65032C3.56568 5.50682 3.48485 5.37681 3.37678 5.2715L1.90213 3.83411L3.94006 3.53791C4.08939 3.51621 4.2312 3.45852 4.35327 3.36983C4.47535 3.28113 4.57403 3.16408 4.64081 3.02877L5.55218 1.18211L6.46368 3.02891C6.53046 3.16419 6.62914 3.28121 6.7512 3.36989C6.87327 3.45856 7.01506 3.51622 7.16437 3.53791L9.2023 3.83411L7.72765 5.27164ZM33.2439 3.48199C33.1908 3.31647 33.0922 3.16925 32.9593 3.05721C32.8264 2.94517 32.6646 2.87284 32.4925 2.84851L30.3177 2.53248L29.3451 0.561816C29.1872 0.241758 28.8674 0.0429688 28.5105 0.0429688C28.1536 0.0429688 27.8338 0.241758 27.6758 0.561816L26.7032 2.53255L24.5283 2.84857C24.1751 2.89991 23.8873 3.14266 23.7769 3.48206C23.6667 3.82147 23.7569 4.18705 24.0125 4.43622L25.5863 5.9702L25.2147 8.13624C25.1544 8.48802 25.2963 8.83679 25.585 9.04658C25.7435 9.1625 25.9348 9.22509 26.1312 9.22534C26.2824 9.22513 26.4314 9.18808 26.5652 9.1174L28.5104 8.09475L30.4556 9.1174C30.7715 9.28352 31.1471 9.25638 31.4358 9.04651C31.7246 8.83672 31.8664 8.48795 31.8061 8.13624L31.4346 5.97014L33.0084 4.43615C33.2639 4.18705 33.3541 3.82146 33.2439 3.48199ZM30.6859 5.27157C30.5778 5.37689 30.497 5.50691 30.4503 5.65042C30.4037 5.79394 30.3927 5.94664 30.4182 6.09537L30.7663 8.1251L28.9435 7.16684C28.8099 7.09664 28.6613 7.05996 28.5104 7.05996C28.3595 7.05996 28.2109 7.09664 28.0773 7.16684L26.2545 8.1251L26.6026 6.0953C26.6282 5.94658 26.6171 5.79388 26.5705 5.65037C26.5238 5.50686 26.443 5.37686 26.3349 5.27157L24.8601 3.83411L26.8983 3.53791C27.0476 3.51622 27.1894 3.45854 27.3115 3.36984C27.4336 3.28115 27.5323 3.16409 27.5991 3.02877L28.5105 1.18211L29.4218 3.02877C29.4886 3.16411 29.5873 3.28117 29.7094 3.36987C29.8315 3.45857 29.9733 3.51624 30.1227 3.53791L32.1606 3.83411L30.6859 5.27157ZM34.7632 13.4174C34.6451 13.2292 34.4877 13.0687 34.3018 12.9469C34.1159 12.8251 33.9059 12.7449 33.6862 12.7117C33.3791 12.6645 33.065 12.7113 32.7851 12.8461C32.5052 12.9808 32.2727 13.1972 32.1183 13.4668C31.9528 13.3532 31.765 13.2763 31.5674 13.241C30.8766 13.1182 30.1929 13.529 29.977 14.1966L29.7372 14.9377C29.6074 14.8506 29.4638 14.7859 29.3125 14.7463C28.5876 14.5595 27.8463 14.973 27.6244 15.6877L27.4674 16.1933C27.2947 16.0763 27.0988 15.9983 26.893 15.9645C26.186 15.8486 25.512 16.2588 25.2903 16.94L23.6665 21.9265C23.2796 22.0997 22.4747 22.5089 21.6466 23.2283C21.5959 23.2724 21.5544 23.326 21.5244 23.3861C21.4945 23.4463 21.4766 23.5117 21.4719 23.5787C21.4672 23.6457 21.4758 23.713 21.4971 23.7767C21.5184 23.8404 21.5521 23.8993 21.5961 23.95C21.6402 24.0007 21.6938 24.0422 21.7539 24.0721C21.814 24.1021 21.8795 24.12 21.9465 24.1247C22.0135 24.1294 22.0807 24.1208 22.1444 24.0995C22.2081 24.0782 22.267 24.0445 22.3177 24.0005C23.2949 23.1513 24.2483 22.7908 24.2567 22.7876C24.2589 22.7869 24.2608 22.7858 24.2629 22.785C24.2731 22.7811 24.2831 22.7766 24.2932 22.772C24.2988 22.7694 24.3047 22.767 24.3102 22.7641C24.3209 22.7588 24.3311 22.7528 24.3414 22.7467C24.3461 22.744 24.3509 22.7414 24.3554 22.7386C24.3667 22.7313 24.3775 22.7234 24.3883 22.7152C24.3915 22.7129 24.395 22.7107 24.3981 22.7082C24.4118 22.6973 24.4251 22.6858 24.4379 22.6733L26.7165 20.4475L27.9395 19.2528C28.0314 19.163 28.1552 19.1133 28.2837 19.1147H28.2846C28.3484 19.1153 28.4115 19.1285 28.4702 19.1536C28.5288 19.1787 28.5819 19.2152 28.6264 19.261C28.6724 19.3081 28.7083 19.3641 28.732 19.4255C28.7557 19.487 28.7666 19.5526 28.7641 19.6184V19.6187C28.7603 19.7221 28.7236 19.8216 28.6592 19.9026L24.7691 24.799C24.6861 24.9035 24.6472 25.0363 24.6608 25.1691C24.6744 25.3019 24.7393 25.4242 24.8418 25.5097C24.8462 25.5133 24.8509 25.5165 24.8553 25.52C24.8639 25.5268 24.8725 25.5335 24.8815 25.5395C24.8869 25.5433 24.8926 25.5466 24.8982 25.55C24.9065 25.5552 24.9147 25.5604 24.9232 25.5651C24.9293 25.5684 24.9355 25.5714 24.9416 25.5745C24.95 25.5787 24.9583 25.5827 24.9669 25.5864C24.9733 25.5892 24.9798 25.5917 24.9863 25.5943C25.0013 25.6 25.0166 25.6051 25.0321 25.6095C25.041 25.612 25.0498 25.6142 25.0588 25.6161C25.0655 25.6176 25.0721 25.6191 25.0788 25.6202C25.088 25.6219 25.0972 25.6232 25.1065 25.6243C25.1131 25.6252 25.1196 25.6261 25.1261 25.6266C25.1359 25.6274 25.1457 25.6278 25.1555 25.628C25.1602 25.6282 25.1649 25.6287 25.1696 25.6287C25.1706 25.6287 25.1716 25.6285 25.1726 25.6284C25.2007 25.6282 25.2287 25.6257 25.2564 25.6209C25.28 25.6168 25.3033 25.6111 25.3262 25.6038C25.33 25.6025 25.3337 25.6012 25.3375 25.5999C25.3609 25.5918 25.3836 25.5821 25.4056 25.5708C25.4083 25.5694 25.4109 25.5677 25.4135 25.5663C25.437 25.5537 25.4594 25.5393 25.4806 25.5232L27.5871 23.9089C29.3937 22.5243 30.7567 20.7022 31.5684 18.5986C31.6849 18.2967 31.7895 17.9904 31.8822 17.6803L32.9602 14.0743C32.9988 13.9575 33.0775 13.8581 33.1824 13.7938C33.2874 13.7295 33.4117 13.7045 33.5333 13.7233C33.6859 13.7463 33.815 13.831 33.8971 13.9617C33.9792 14.0924 33.9993 14.2455 33.9539 14.393L32.3378 19.6373C32.2536 19.9119 32.1704 20.1868 32.0881 20.4621C31.386 22.8011 30.5901 25.4523 28.7989 26.9149L24.8459 30.1428C24.7872 30.1908 24.7398 30.2512 24.7073 30.3197C24.6748 30.3883 24.658 30.4631 24.658 30.539V33.9334H19.7886V29.1563C19.8139 28.9353 20.0505 27.093 21.024 25.5145C21.0592 25.4573 21.0829 25.3938 21.0936 25.3275C21.1043 25.2612 21.1018 25.1934 21.0863 25.1281C21.0708 25.0627 21.0426 25.001 21.0033 24.9466C20.9639 24.8921 20.9143 24.846 20.8571 24.8107C20.7999 24.7755 20.7364 24.7518 20.6701 24.7411C20.6038 24.7304 20.536 24.7329 20.4706 24.7484C20.4053 24.7639 20.3436 24.7921 20.2892 24.8314C20.2347 24.8707 20.1886 24.9204 20.1533 24.9776C18.9929 26.8593 18.7767 28.99 18.768 29.0797C18.7664 29.096 18.7656 29.1123 18.7656 29.1287V34.4448C18.7656 34.5805 18.8195 34.7106 18.9154 34.8065C19.0114 34.9024 19.1415 34.9563 19.2771 34.9563H25.1695C25.3051 34.9563 25.4352 34.9024 25.5311 34.8065C25.6271 34.7106 25.6809 34.5805 25.6809 34.4448V30.7815L29.4459 27.707C31.4798 26.0461 32.3235 23.2355 33.0679 20.7559C33.1509 20.4792 33.2329 20.2059 33.3154 19.9382L34.9315 14.6939C34.997 14.4815 35.0158 14.2576 34.9868 14.0373C34.9578 13.817 34.8815 13.6055 34.7632 13.4174ZM27.0584 17.5097L26.9884 17.7351L26.5354 19.1943L25.2104 20.4886L26.2627 17.2567C26.2896 17.1729 26.3423 17.0998 26.4134 17.0479C26.4845 16.9961 26.5702 16.9682 26.6582 16.9683C26.681 16.9683 26.7041 16.9701 26.7273 16.9739C26.8905 17.0007 26.9775 17.106 27.0148 17.1664C27.0522 17.2268 27.1075 17.3517 27.0584 17.5097ZM29.3225 16.2196L29.1264 16.8262L28.698 18.1505C28.6137 18.1266 28.5275 18.11 28.4403 18.1011C28.3925 18.0958 28.3445 18.0927 28.2964 18.0919L28.2782 18.0918C28.1619 18.0918 28.0476 18.1049 27.9369 18.1304L28.0355 17.8131V17.8129L28.6013 15.9909C28.63 15.8981 28.6934 15.8199 28.7783 15.7726C28.8632 15.7253 28.963 15.7125 29.0571 15.7369C29.1591 15.7632 29.2433 15.8286 29.2941 15.9209C29.345 16.0133 29.3551 16.1193 29.3225 16.2196ZM31.6926 14.7424L30.9019 17.3872C30.8318 17.6217 30.7542 17.8539 30.6693 18.0834C30.4175 18.7645 30.1001 19.4194 29.7218 20.0392L29.7221 20.038C29.7309 20.009 29.7384 19.9799 29.7453 19.9507C29.7476 19.9412 29.7494 19.9317 29.7515 19.9222C29.7627 19.8704 29.7712 19.818 29.777 19.7653C29.778 19.7557 29.7792 19.7462 29.7801 19.7365C29.7829 19.7063 29.7848 19.676 29.7858 19.6457C29.7867 19.6154 29.7864 19.5851 29.7855 19.5549C29.7852 19.5454 29.7846 19.5361 29.7841 19.5266C29.7815 19.4737 29.7761 19.4209 29.768 19.3685C29.7666 19.3591 29.7653 19.3497 29.7636 19.3403C29.7586 19.3114 29.7528 19.2826 29.7463 19.254L29.7456 19.2509C29.7385 19.2213 29.7305 19.192 29.7217 19.1629C29.719 19.1538 29.7159 19.1449 29.713 19.1359C29.7031 19.1053 29.6923 19.0751 29.6806 19.0452C29.6728 19.0253 29.6645 19.0056 29.6558 18.9862C29.6519 18.9772 29.648 18.9683 29.6439 18.9594C29.6315 18.9329 29.6184 18.9067 29.6045 18.8809L29.6024 18.8768C29.5893 18.8529 29.5756 18.8292 29.5612 18.8058L30.2958 16.5343L30.2959 16.5341L30.9502 14.5111C31.0096 14.3274 31.1978 14.2145 31.3881 14.248C31.5374 14.2746 31.617 14.3716 31.6511 14.427C31.6852 14.4825 31.736 14.5971 31.6926 14.7424ZM16.232 29.0799C16.2225 28.9778 15.976 26.5571 14.5967 24.5977C13.4655 22.9907 11.9205 22.1881 11.3336 21.9262L9.70993 16.94C9.48818 16.2588 8.81374 15.8485 8.10725 15.9645C7.90147 15.9983 7.70548 16.0763 7.53282 16.1933L7.3758 15.6877C7.15391 14.9729 6.41234 14.5594 5.68767 14.7463C5.53637 14.7859 5.39278 14.8506 5.26288 14.9377L5.02315 14.1966C4.80727 13.5289 4.12347 13.1179 3.4327 13.241C3.23309 13.2766 3.04578 13.3545 2.88186 13.4668C2.72739 13.1972 2.4949 12.9808 2.21502 12.8461C1.93514 12.7113 1.62099 12.6645 1.31397 12.7117C1.0942 12.7449 0.884177 12.8251 0.698271 12.9469C0.512365 13.0686 0.354961 13.2292 0.236827 13.4174C0.118516 13.6055 0.0422394 13.817 0.0132155 14.0373C-0.0158084 14.2577 0.00310545 14.4817 0.0686631 14.694L1.68475 19.9384C1.76726 20.2062 1.84929 20.4794 1.93234 20.7561C2.56665 22.8689 3.28559 25.2637 4.76352 26.9422C4.8079 26.9926 4.86178 27.0338 4.92208 27.0634C4.98238 27.093 5.04793 27.1104 5.11496 27.1146C5.182 27.1189 5.24922 27.1099 5.31278 27.0882C5.37634 27.0664 5.43499 27.0324 5.48539 26.988C5.53581 26.9436 5.57699 26.8897 5.60657 26.8294C5.63616 26.7691 5.65358 26.7035 5.65783 26.6365C5.66209 26.5695 5.65309 26.5022 5.63136 26.4387C5.60963 26.3751 5.57559 26.3164 5.53119 26.266C4.20106 24.7554 3.51616 22.4744 2.91207 20.4618C2.82826 20.1828 2.74555 19.9071 2.66229 19.637L1.0462 14.3926C1.00074 14.2452 1.02091 14.0921 1.10301 13.9614C1.18511 13.8307 1.31431 13.7462 1.46682 13.723C1.58845 13.7042 1.71279 13.7292 1.81774 13.7935C1.92268 13.8578 2.00142 13.9572 2.03994 14.0741L2.32705 15.0345C2.32713 15.0346 2.32717 15.0349 2.32719 15.0351L3.1179 17.68C3.14504 17.7707 3.17348 17.861 3.20253 17.9508C3.91777 20.1601 5.22166 22.0911 6.99907 23.5768C7.02984 23.6025 7.0608 23.6279 7.09184 23.6533C7.1975 23.7401 7.30456 23.8252 7.41299 23.9085L9.51941 25.5229C9.54095 25.5394 9.56351 25.5535 9.58675 25.5662L9.59434 25.5705C9.61655 25.5821 9.63945 25.5917 9.66283 25.5998C9.66646 25.601 9.67001 25.6024 9.6737 25.6036C9.70026 25.6122 9.72749 25.6185 9.75512 25.6225C9.77917 25.6262 9.80345 25.6281 9.82778 25.6283L9.83045 25.6285C9.83469 25.6285 9.83886 25.628 9.8431 25.6279C9.85362 25.6276 9.86401 25.6273 9.87454 25.6264C9.88056 25.6259 9.88651 25.625 9.89238 25.6243C9.90855 25.6226 9.9246 25.6199 9.94044 25.6161C9.95622 25.6126 9.97184 25.6084 9.98727 25.6035C9.99643 25.6006 10.0054 25.5973 10.0145 25.5938C10.0297 25.5881 10.0446 25.5815 10.0591 25.574C10.065 25.5711 10.0709 25.5683 10.0765 25.5651C10.0854 25.5602 10.0939 25.5549 10.1025 25.5495C10.1079 25.5461 10.1133 25.543 10.1184 25.5394C10.1275 25.5332 10.1364 25.5263 10.1452 25.5195C10.1495 25.5161 10.1539 25.5131 10.1582 25.5095C10.2607 25.424 10.3257 25.3017 10.3393 25.1689C10.3529 25.0361 10.314 24.9032 10.231 24.7987L6.34084 19.9023C6.26748 19.8096 6.23036 19.6934 6.23641 19.5754C6.24246 19.4573 6.29127 19.3455 6.37372 19.2608C6.41817 19.215 6.47127 19.1785 6.52993 19.1534C6.58859 19.1283 6.65164 19.1151 6.71545 19.1145H6.71579C6.77954 19.1136 6.84283 19.1254 6.90201 19.1491C6.96119 19.1729 7.01509 19.2081 7.0606 19.2527L10.5623 22.6731C10.5751 22.6856 10.5884 22.6972 10.6022 22.7081L10.6074 22.7118C10.6197 22.7214 10.6324 22.7304 10.6454 22.7388C10.6478 22.7403 10.6504 22.7416 10.6527 22.743C10.6652 22.7506 10.6777 22.7578 10.6906 22.7643C10.695 22.7664 10.6995 22.7683 10.7039 22.7703C10.7148 22.7754 10.7257 22.7803 10.7368 22.7846C10.7387 22.7853 10.7406 22.7863 10.7425 22.787C10.7605 22.7937 12.557 23.4769 13.7602 25.1862C14.9158 26.828 15.1848 28.9219 15.2116 29.1561V33.9332H10.3422V30.5387C10.3422 30.4629 10.3253 30.388 10.2928 30.3195C10.2603 30.251 10.213 30.1905 10.1543 30.1426L7.0649 27.6198C7.01288 27.5773 6.953 27.5454 6.88867 27.5261C6.82435 27.5067 6.75684 27.5003 6.69001 27.507C6.62317 27.5138 6.55833 27.5336 6.49917 27.5654C6.44001 27.5972 6.38769 27.6404 6.34522 27.6924C6.30273 27.7444 6.27091 27.8043 6.25157 27.8687C6.23222 27.933 6.22574 28.0005 6.23249 28.0673C6.23924 28.1341 6.25908 28.199 6.29089 28.2582C6.3227 28.3173 6.36585 28.3696 6.41788 28.4121L9.31933 30.7814V34.4448C9.31933 34.5804 9.37321 34.7105 9.46913 34.8064C9.56505 34.9023 9.69514 34.9562 9.83079 34.9562H15.7232C15.8588 34.9562 15.9889 34.9023 16.0848 34.8064C16.1807 34.7105 16.2346 34.5804 16.2346 34.4448V29.1286C16.2344 29.1123 16.2335 29.0961 16.232 29.0799ZM5.39769 18.8769C5.39687 18.8784 5.39618 18.88 5.39529 18.8816C5.38142 18.9073 5.36843 18.9333 5.35612 18.9596C5.35189 18.9686 5.34806 18.9776 5.34402 18.9867C5.33104 19.0159 5.31895 19.0455 5.30779 19.0755C5.30041 19.0955 5.29358 19.1157 5.28708 19.1359C5.28414 19.145 5.28107 19.1539 5.27826 19.1631C5.26951 19.1921 5.26145 19.2214 5.25447 19.2509C5.25406 19.2524 5.25386 19.2541 5.25345 19.2556C5.24689 19.2836 5.24128 19.3118 5.23643 19.3401C5.23472 19.3498 5.23335 19.3596 5.23185 19.3693C5.22372 19.4213 5.2184 19.4736 5.21592 19.5261C5.21544 19.5359 5.21476 19.5456 5.21448 19.5553C5.21359 19.5855 5.21332 19.6156 5.21421 19.6458L5.21442 19.6489C5.2153 19.6782 5.21729 19.7074 5.21988 19.7366C5.2207 19.7463 5.22193 19.7558 5.22303 19.7654C5.22645 19.797 5.23088 19.8285 5.23629 19.8598C5.23998 19.8809 5.24415 19.902 5.24873 19.9229C5.25071 19.9321 5.25256 19.9413 5.25475 19.9505C5.26179 19.9802 5.26951 20.0099 5.27833 20.0392C4.77664 19.2179 4.37982 18.329 4.09831 17.3873L3.3076 14.7424C3.26412 14.5972 3.31484 14.4825 3.34896 14.4271C3.38307 14.3717 3.46264 14.2748 3.61193 14.2483C3.63449 14.2442 3.65705 14.2423 3.67941 14.2423C3.84504 14.2423 3.99755 14.3494 4.04991 14.5114L4.97441 17.3697L5.43898 18.8061C5.42442 18.8294 5.41067 18.853 5.39769 18.8769ZM7.0109 18.1211C7.00153 18.1192 6.99231 18.1172 6.98294 18.1155C6.94176 18.1084 6.9003 18.1029 6.85866 18.0992C6.84875 18.0983 6.83884 18.0978 6.82893 18.0972C6.79364 18.0947 6.75828 18.0934 6.7229 18.0933C6.71354 18.0933 6.70424 18.093 6.69481 18.0932C6.65297 18.0939 6.61127 18.0965 6.56964 18.1006C6.5598 18.1016 6.55016 18.103 6.54038 18.1042C6.50456 18.1085 6.4689 18.1141 6.43347 18.1209C6.42499 18.1225 6.41658 18.1238 6.40817 18.1256C6.3727 18.1331 6.33735 18.1415 6.30242 18.1516L5.88892 16.8733L5.67748 16.2197C5.66139 16.1706 5.65561 16.1187 5.66051 16.0673C5.66542 16.0159 5.6809 15.9661 5.70599 15.9209C5.73066 15.8756 5.76446 15.8358 5.80526 15.8041C5.84606 15.7724 5.89298 15.7495 5.94306 15.7368C6.03713 15.7125 6.13697 15.7253 6.22183 15.7727C6.3067 15.82 6.37008 15.8982 6.39881 15.991L6.96455 17.8129L6.96462 17.8131L7.06354 18.1315C7.0461 18.1275 7.02847 18.1245 7.0109 18.1211ZM9.38058 20.0889L8.4647 19.1943L8.01161 17.7351L7.94154 17.5097C7.8926 17.3517 7.9479 17.2269 7.98516 17.1664C8.02241 17.106 8.1095 17.0007 8.27275 16.974C8.37124 16.9573 8.47245 16.9767 8.55779 17.0286C8.64312 17.0806 8.70685 17.1616 8.73725 17.2567L9.78964 20.4886L9.38058 20.0889Z" fill="#63AB45"/>
</g>
</g>
</svg>
