<svg width="35" height="35" viewBox="0 0 35 35" fill="none" xmlns="http://www.w3.org/2000/svg">
<mask id="mask0_1511_1034" style="mask-type:alpha" maskUnits="userSpaceOnUse" x="0" y="0" width="35" height="35">
<rect width="35" height="34.507" fill="#D9D9D9"/>
</mask>
<g mask="url(#mask0_1511_1034)">
<mask id="mask1_1511_1034" style="mask-type:alpha" maskUnits="userSpaceOnUse" x="0" y="0" width="35" height="35">
<rect width="35" height="35" fill="#D9D9D9"/>
</mask>
<g mask="url(#mask1_1511_1034)">
<path d="M21.3281 19.1406C21.248 19.1406 21.1688 19.1229 21.0962 19.0889C21.0236 19.0549 20.9594 19.0053 20.9081 18.9438L18.3378 15.8594H16.9531V14.7656H18.5938C18.6739 14.7657 18.7531 14.7833 18.8257 14.8173C18.8982 14.8513 18.9625 14.9009 19.0138 14.9625L21.3281 17.7395L23.6425 14.9625C23.6938 14.9009 23.758 14.8513 23.8306 14.8173C23.9032 14.7833 23.9823 14.7657 24.0625 14.7656H33.3594C33.5044 14.7656 33.6435 14.708 33.7461 14.6054C33.8486 14.5029 33.9062 14.3638 33.9062 14.2188V2.1875C33.9062 2.04246 33.8486 1.90336 33.7461 1.8008C33.6435 1.69824 33.5044 1.64062 33.3594 1.64062H9.29688C9.15183 1.64062 9.01273 1.69824 8.91018 1.8008C8.80762 1.90336 8.75 2.04246 8.75 2.1875V14.2188C8.75 14.3638 8.80762 14.5029 8.91018 14.6054C9.01273 14.708 9.15183 14.7656 9.29688 14.7656H10.9375V15.8594H9.29688C8.86175 15.8594 8.44445 15.6865 8.13678 15.3788C7.8291 15.0712 7.65625 14.6539 7.65625 14.2188V2.1875C7.65625 1.75238 7.8291 1.33508 8.13678 1.0274C8.44445 0.719726 8.86175 0.546875 9.29688 0.546875H33.3594C33.7945 0.546875 34.2118 0.719726 34.5195 1.0274C34.8271 1.33508 35 1.75238 35 2.1875V14.2188C35 14.6539 34.8271 15.0712 34.5195 15.3788C34.2118 15.6865 33.7945 15.8594 33.3594 15.8594H24.3184L21.7481 18.9438C21.6968 19.0053 21.6326 19.0549 21.56 19.0889C21.4875 19.1229 21.4083 19.1406 21.3281 19.1406Z" fill="#63AB45"/>
<path d="M9.29688 21.3281H6.01562V20.2344H9.10492L10.4584 19.1521C10.7792 18.8964 11.0381 18.5715 11.2158 18.2017C11.3934 17.832 11.4853 17.4268 11.4844 17.0166V13.6719C11.4844 13.5268 11.542 13.3877 11.6446 13.2852C11.7471 13.1826 11.8862 13.125 12.0312 13.125C16.3565 13.125 16.4062 16.3734 16.4062 16.4062V20.7812H15.3125V16.4062C15.3087 16.2001 15.1971 14.4539 12.5781 14.2401V17.0166C12.5795 17.5909 12.451 18.1581 12.2022 18.6757C11.9534 19.1934 11.5908 19.648 11.1415 20.0058L9.63867 21.2089C9.54158 21.2863 9.42104 21.3283 9.29688 21.3281Z" fill="#63AB45"/>
<path d="M21.875 24.6094H16.9531V23.5156H21.875C22.1651 23.5156 22.4433 23.4004 22.6484 23.1953C22.8535 22.9902 22.9688 22.712 22.9688 22.4219C22.9688 22.1318 22.8535 21.8536 22.6484 21.6485C22.4433 21.4434 22.1651 21.3281 21.875 21.3281H14.2188V20.2344H21.875C22.4552 20.2344 23.0116 20.4648 23.4218 20.8751C23.832 21.2853 24.0625 21.8417 24.0625 22.4219C24.0625 23.002 23.832 23.5584 23.4218 23.9687C23.0116 24.3789 22.4552 24.6094 21.875 24.6094Z" fill="#63AB45"/>
<path d="M22.4219 27.8906H17.5V26.7969H22.4219C22.712 26.7969 22.9902 26.6816 23.1953 26.4765C23.4004 26.2714 23.5156 25.9932 23.5156 25.7031C23.5156 25.413 23.4004 25.1348 23.1953 24.9297C22.9902 24.7246 22.712 24.6094 22.4219 24.6094H17.5V23.5156H22.4219C23.002 23.5156 23.5584 23.7461 23.9687 24.1563C24.3789 24.5666 24.6094 25.123 24.6094 25.7031C24.6094 26.2833 24.3789 26.8397 23.9687 27.2499C23.5584 27.6602 23.002 27.8906 22.4219 27.8906Z" fill="#63AB45"/>
<path d="M21.875 31.1719H16.9531V30.0781H21.875C22.1651 30.0781 22.4433 29.9629 22.6484 29.7578C22.8535 29.5527 22.9688 29.2745 22.9688 28.9844C22.9688 28.6943 22.8535 28.4161 22.6484 28.211C22.4433 28.0059 22.1651 27.8906 21.875 27.8906H16.9531V26.7969H21.875C22.4552 26.7969 23.0116 27.0273 23.4218 27.4376C23.832 27.8478 24.0625 28.4042 24.0625 28.9844C24.0625 29.5645 23.832 30.1209 23.4218 30.5312C23.0116 30.9414 22.4552 31.1719 21.875 31.1719Z" fill="#63AB45"/>
<path d="M20.7812 34.4531H10.3906C9.48489 34.3828 8.6329 33.9955 7.98438 33.3594H6.01562V32.2656H8.20312C8.34815 32.2657 8.48723 32.3233 8.58977 32.4259C9.05804 32.947 9.70065 33.279 10.3966 33.3594H20.7812C21.0713 33.3594 21.3495 33.2441 21.5546 33.039C21.7598 32.8339 21.875 32.5557 21.875 32.2656C21.875 31.9755 21.7598 31.6973 21.5546 31.4922C21.3495 31.2871 21.0713 31.1719 20.7812 31.1719H16.9531V30.0781H20.7812C21.3614 30.0781 21.9178 30.3086 22.328 30.7188C22.7383 31.1291 22.9688 31.6855 22.9688 32.2656C22.9688 32.8458 22.7383 33.4022 22.328 33.8124C21.9178 34.2227 21.3614 34.4531 20.7812 34.4531Z" fill="#63AB45"/>
<path d="M4.92188 34.4531H1.64062C1.2055 34.4531 0.788205 34.2803 0.480528 33.9726C0.172851 33.6649 0 33.2476 0 32.8125L0 20.7812C0 20.3461 0.172851 19.9288 0.480528 19.6212C0.788205 19.3135 1.2055 19.1406 1.64062 19.1406H4.92188C5.357 19.1406 5.7743 19.3135 6.08197 19.6212C6.38965 19.9288 6.5625 20.3461 6.5625 20.7812V32.8125C6.5625 33.2476 6.38965 33.6649 6.08197 33.9726C5.7743 34.2803 5.357 34.4531 4.92188 34.4531ZM1.64062 20.2344C1.49558 20.2344 1.35648 20.292 1.25393 20.3946C1.15137 20.4971 1.09375 20.6362 1.09375 20.7812V32.8125C1.09375 32.9575 1.15137 33.0966 1.25393 33.1992C1.35648 33.3018 1.49558 33.3594 1.64062 33.3594H4.92188C5.06692 33.3594 5.20602 33.3018 5.30857 33.1992C5.41113 33.0966 5.46875 32.9575 5.46875 32.8125V20.7812C5.46875 20.6362 5.41113 20.4971 5.30857 20.3946C5.20602 20.292 5.06692 20.2344 4.92188 20.2344H1.64062Z" fill="#63AB45"/>
<path d="M2.73438 21.3283H3.82812V22.422H2.73438V21.3283ZM23.5156 11.4845C23.4308 11.4844 23.3472 11.4648 23.2712 11.4271L21.3281 10.4553L19.3851 11.4298C19.2915 11.4766 19.1864 11.4955 19.0824 11.4844C18.9784 11.4733 18.8797 11.4326 18.7981 11.367C18.7166 11.3015 18.6555 11.214 18.6222 11.1148C18.5888 11.0156 18.5847 10.909 18.6102 10.8075L19.098 8.85513L18.1388 7.41576C18.0831 7.33337 18.0509 7.23735 18.0457 7.13805C18.0405 7.03874 18.0625 6.93989 18.1093 6.85215C18.1561 6.76441 18.2259 6.69108 18.3113 6.64007C18.3966 6.58905 18.4943 6.56228 18.5938 6.56263H19.9418L20.8715 5.16537C20.9244 5.09463 20.9931 5.03721 21.0721 4.99765C21.151 4.9581 21.2382 4.9375 21.3265 4.9375C21.4148 4.9375 21.5019 4.9581 21.5809 4.99765C21.6599 5.03721 21.7286 5.09463 21.7815 5.16537L22.7145 6.56263H24.0625C24.1615 6.56262 24.2587 6.58948 24.3436 6.64036C24.4285 6.69123 24.4981 6.76421 24.5448 6.85151C24.5915 6.93881 24.6136 7.03715 24.6088 7.13604C24.604 7.23493 24.5725 7.33066 24.5175 7.41302L23.5583 8.8524L24.0461 10.8047C24.0663 10.8854 24.0678 10.9696 24.0506 11.0509C24.0334 11.1322 23.9979 11.2085 23.9467 11.2741C23.8956 11.3396 23.8302 11.3926 23.7555 11.4291C23.6808 11.4656 23.5988 11.4845 23.5156 11.4845ZM21.3281 9.29701C21.413 9.29693 21.4967 9.31659 21.5726 9.35443L22.6953 9.91662L22.4372 8.88302C22.4185 8.80887 22.4155 8.73163 22.4285 8.65627C22.4415 8.58091 22.4702 8.50912 22.5127 8.44552L23.0404 7.65638H22.4219C22.3319 7.65639 22.2432 7.63419 22.1639 7.59174C22.0845 7.54929 22.0168 7.4879 21.9669 7.41302L21.3281 6.45326L20.6894 7.41138C20.6396 7.48656 20.572 7.54827 20.4926 7.59101C20.4133 7.63376 20.3245 7.65621 20.2344 7.65638H19.6159L20.1425 8.44662C20.185 8.51021 20.2136 8.582 20.2266 8.65736C20.2396 8.73272 20.2367 8.80997 20.218 8.88412L19.9598 9.91771L21.0837 9.35552C21.1595 9.3173 21.2432 9.29727 21.3281 9.29701ZM31.1719 11.4845C31.0871 11.4844 31.0034 11.4648 30.9274 11.4271L28.9844 10.4553L27.0413 11.4298C26.9477 11.4766 26.8427 11.4955 26.7387 11.4844C26.6346 11.4733 26.536 11.4326 26.4544 11.367C26.3728 11.3015 26.3117 11.214 26.2784 11.1148C26.2451 11.0156 26.2409 10.909 26.2664 10.8075L26.7542 8.85513L25.795 7.41576C25.7393 7.33337 25.7071 7.23735 25.702 7.13805C25.6968 7.03874 25.7187 6.93989 25.7655 6.85215C25.8123 6.76441 25.8822 6.69108 25.9675 6.64007C26.0529 6.58905 26.1506 6.56228 26.25 6.56263H27.598L28.5277 5.16537C28.5806 5.09463 28.6493 5.03721 28.7283 4.99765C28.8073 4.9581 28.8944 4.9375 28.9827 4.9375C29.0711 4.9375 29.1582 4.9581 29.2372 4.99765C29.3162 5.03721 29.3848 5.09463 29.4377 5.16537L30.3707 6.56263H31.7188C31.8178 6.56262 31.9149 6.58948 31.9998 6.64036C32.0848 6.69123 32.1543 6.76421 32.201 6.85151C32.2477 6.93881 32.2699 7.03715 32.2651 7.13604C32.2603 7.23493 32.2287 7.33066 32.1737 7.41302L31.2145 8.8524L31.7023 10.8047C31.7225 10.8854 31.7241 10.9696 31.7069 11.0509C31.6897 11.1322 31.6541 11.2085 31.603 11.2741C31.5519 11.3396 31.4864 11.3926 31.4117 11.4291C31.337 11.4656 31.255 11.4845 31.1719 11.4845ZM28.9844 9.29701C29.0692 9.29693 29.1529 9.31659 29.2288 9.35443L30.3516 9.91662L30.0934 8.88302C30.0747 8.80887 30.0718 8.73163 30.0848 8.65627C30.0978 8.58091 30.1264 8.50912 30.1689 8.44552L30.6966 7.65638H30.0781C29.9881 7.65639 29.8995 7.63419 29.8201 7.59174C29.7407 7.54929 29.6731 7.4879 29.6231 7.41302L28.9844 6.45326L28.3456 7.41138C28.2959 7.48656 28.2283 7.54827 28.1489 7.59101C28.0695 7.63376 27.9808 7.65621 27.8906 7.65638H27.2721L27.7987 8.44662C27.8412 8.51021 27.8699 8.582 27.8829 8.65736C27.8959 8.73272 27.8929 8.80997 27.8742 8.88412L27.6161 9.91771L28.7399 9.35552C28.8158 9.3173 28.8995 9.29727 28.9844 9.29701ZM15.8594 11.4845C15.7746 11.4844 15.6909 11.4648 15.6149 11.4271L13.6719 10.4553L11.7288 11.4298C11.6352 11.4766 11.5302 11.4955 11.4262 11.4844C11.3221 11.4733 11.2235 11.4326 11.1419 11.367C11.0603 11.3015 10.9992 11.214 10.9659 11.1148C10.9326 11.0156 10.9284 10.909 10.9539 10.8075L11.4417 8.85513L10.4825 7.41576C10.4268 7.33337 10.3946 7.23735 10.3895 7.13805C10.3843 7.03874 10.4062 6.93989 10.453 6.85215C10.4998 6.76441 10.5697 6.69108 10.655 6.64007C10.7404 6.58905 10.8381 6.56228 10.9375 6.56263H12.2855L13.2152 5.16537C13.2681 5.09463 13.3368 5.03721 13.4158 4.99765C13.4948 4.9581 13.5819 4.9375 13.6702 4.9375C13.7586 4.9375 13.8457 4.9581 13.9247 4.99765C14.0037 5.03721 14.0723 5.09463 14.1252 5.16537L15.0582 6.56263H16.4062C16.5053 6.56262 16.6024 6.58948 16.6873 6.64036C16.7723 6.69123 16.8418 6.76421 16.8885 6.85151C16.9352 6.93881 16.9574 7.03715 16.9526 7.13604C16.9478 7.23493 16.9162 7.33066 16.8612 7.41302L15.902 8.8524L16.3898 10.8047C16.41 10.8854 16.4116 10.9696 16.3944 11.0509C16.3772 11.1322 16.3416 11.2085 16.2905 11.2741C16.2394 11.3396 16.1739 11.3926 16.0992 11.4291C16.0245 11.4656 15.9425 11.4845 15.8594 11.4845ZM13.6719 9.29701C13.7567 9.29693 13.8404 9.31659 13.9163 9.35443L15.0391 9.91662L14.7809 8.88302C14.7622 8.80887 14.7593 8.73163 14.7723 8.65627C14.7853 8.58091 14.8139 8.50912 14.8564 8.44552L15.3841 7.65638H14.7656C14.6756 7.65639 14.587 7.63419 14.5076 7.59174C14.4282 7.54929 14.3606 7.4879 14.3106 7.41302L13.6719 6.45326L13.0331 7.41138C12.9834 7.48656 12.9158 7.54827 12.8364 7.59101C12.757 7.63376 12.6683 7.65621 12.5781 7.65638H11.9596L12.4862 8.44662C12.5287 8.51021 12.5574 8.582 12.5704 8.65736C12.5834 8.73272 12.5804 8.80997 12.5617 8.88412L12.3036 9.91771L13.4274 9.35552C13.5033 9.3173 13.587 9.29727 13.6719 9.29701ZM25.7031 21.3283H30.0781V22.422H25.7031V21.3283ZM25.3165 19.8479L27.7774 17.3869L28.5507 18.1602L26.0898 20.6211L25.3165 19.8479ZM25.3165 24.1758L26.0898 23.4026L28.5507 25.8635L27.7774 26.6368L25.3165 24.1758Z" fill="#63AB45"/>
</g>
</g>
</svg>
