<svg width="9" height="9" viewBox="0 0 9 9" fill="none" xmlns="http://www.w3.org/2000/svg">
<path d="M2.25922 8.90716L1.37398 8.21083C1.24488 8.11412 1.17111 7.97872 1.15266 7.80464C1.13422 7.61122 1.16189 7.45648 1.23566 7.34042C1.23566 7.32108 1.29098 7.25339 1.40164 7.13733L3.5041 5.04835L0.627049 4.67118C0.553279 4.65184 0.497951 4.64217 0.461066 4.64217C0.442623 4.62282 0.42418 4.61315 0.405738 4.61315C0.276639 4.57447 0.165984 4.47776 0.0737704 4.32302C8.24449e-09 4.14894 -0.0184426 3.97485 0.0184426 3.80077L0.378074 2.69826C0.414959 2.54352 0.516393 2.42747 0.682377 2.3501C0.84836 2.27273 0.995902 2.25338 1.125 2.29207C1.14344 2.29207 1.21721 2.33075 1.34631 2.40812L3.89139 3.8588L3.36578 0.870406C3.34734 0.793036 3.33811 0.74468 3.33811 0.725338C3.33811 0.686654 3.33811 0.65764 3.33811 0.638298C3.33811 0.483559 3.39344 0.338491 3.5041 0.203094C3.6332 0.067698 3.78074 0 3.94672 0H5.05328C5.21926 0 5.35758 0.067698 5.46824 0.203094C5.59734 0.338491 5.66189 0.483559 5.66189 0.638298C5.66189 0.65764 5.66189 0.686654 5.66189 0.725338C5.66189 0.74468 5.65266 0.793036 5.63422 0.870406L5.08094 3.88781L7.65369 2.40812C7.78279 2.33075 7.85656 2.29207 7.875 2.29207C8.02254 2.25338 8.17008 2.27273 8.31762 2.3501C8.48361 2.42747 8.58504 2.54352 8.62193 2.69826L8.98156 3.80077C9.01844 3.97485 9 4.14894 8.92623 4.32302C8.85246 4.47776 8.7418 4.57447 8.59426 4.61315C8.57582 4.61315 8.54815 4.62282 8.51127 4.64217C8.49283 4.64217 8.44672 4.65184 8.37295 4.67118L5.46824 5.07737L7.59836 7.13733C7.70902 7.25339 7.76434 7.32108 7.76434 7.34042C7.85656 7.45648 7.89344 7.61122 7.875 7.80464C7.85656 7.97872 7.77357 8.11412 7.62602 8.21083L6.74078 8.90716C6.59324 8.98453 6.43648 9.01354 6.27049 8.9942C6.10451 8.97485 5.97541 8.89748 5.8832 8.76209C5.8832 8.74275 5.87397 8.7234 5.85553 8.70406C5.83709 8.68472 5.80943 8.63636 5.77254 8.55899L4.5 5.77369L3.22746 8.55899C3.20902 8.63636 3.18135 8.68472 3.14447 8.70406C3.12602 8.7234 3.1168 8.74275 3.1168 8.76209C3.04303 8.89748 2.91393 8.97485 2.72951 8.9942C2.56352 9.01354 2.40676 8.98453 2.25922 8.90716Z" fill="#63AB45"/>
</svg>
